<svg width="280" height="280" viewBox="0 0 280 280" fill="none" xmlns="http://www.w3.org/2000/svg">
<rect width="280" height="280" rx="15" fill="#171616"/>
<path d="M40 268V113C40 86.4784 50.5357 61.043 69.2893 42.2893C88.043 23.5357 113.478 13 140 13C166.522 13 191.957 23.5357 210.711 42.2893C229.464 61.043 240 86.4784 240 113V268" stroke="#C9A46A" stroke-width="2.5"/>
<path d="M69.2094 77.8C71.8094 77.9 75.2094 78 79.4094 78.1C83.6094 78.2 87.8094 78.25 92.0094 78.25C96.8094 78.25 101.459 78.2 105.959 78.1C110.459 78 113.659 77.95 115.559 77.95C127.959 77.95 137.209 80.15 143.309 84.55C149.509 88.95 152.609 94.6 152.609 101.5C152.609 105 151.559 108.55 149.459 112.15C147.359 115.75 144.109 118.95 139.709 121.75C135.309 124.55 129.609 126.6 122.609 127.9V128.2C132.009 128.9 139.459 130.6 144.959 133.3C150.459 136 154.409 139.25 156.809 143.05C159.209 146.85 160.409 150.8 160.409 154.9C160.409 161.2 158.759 166.5 155.459 170.8C152.159 175.1 147.409 178.4 141.209 180.7C135.009 182.9 127.609 184 119.009 184C116.609 184 113.159 183.95 108.659 183.85C104.159 183.65 98.7094 183.55 92.3094 183.55C87.9094 183.55 83.6094 183.6 79.4094 183.7C75.2094 183.7 71.8094 183.8 69.2094 184V181C72.4094 180.8 74.8094 180.4 76.4094 179.8C78.0094 179.2 79.0594 178 79.5594 176.2C80.1594 174.4 80.4594 171.7 80.4594 168.1V93.7C80.4594 90 80.1594 87.3 79.5594 85.6C79.0594 83.8 77.9594 82.6 76.2594 82C74.6594 81.3 72.3094 80.9 69.2094 80.8V77.8ZM113.609 80.8C109.709 80.8 107.159 81.65 105.959 83.35C104.859 85.05 104.309 88.5 104.309 93.7V168.1C104.309 171.6 104.559 174.25 105.059 176.05C105.659 177.85 106.659 179.05 108.059 179.65C109.559 180.25 111.759 180.55 114.659 180.55C121.859 180.55 127.109 178.3 130.409 173.8C133.809 169.2 135.509 162.7 135.509 154.3C135.509 146.6 133.559 140.65 129.659 136.45C125.859 132.25 119.509 130.15 110.609 130.15H97.8594C97.8594 130.15 97.8594 129.75 97.8594 128.95C97.8594 128.05 97.8594 127.6 97.8594 127.6H110.759C115.459 127.6 119.059 126.5 121.559 124.3C124.059 122 125.809 119 126.809 115.3C127.809 111.5 128.309 107.45 128.309 103.15C128.309 95.75 127.159 90.2 124.859 86.5C122.559 82.7 118.809 80.8 113.609 80.8Z" fill="#F3EAD9"/>
<path d="M175.5 128.8V131.8C172.1 131.9 169.5 132.3 167.7 133C166 133.6 164.85 134.8 164.25 136.6C163.65 138.3 163.35 141 163.35 144.7V220.9C163.35 224 163.55 226.3 163.95 227.8C164.45 229.3 165.35 230.3 166.65 230.8C168.05 231.3 170.1 231.55 172.8 231.55H180.15C183.55 231.55 186.75 230.75 189.75 229.15C192.75 227.55 195.45 225.3 197.85 222.4C200.25 219.4 202.25 215.85 203.85 211.75C205.45 207.65 206.65 203.1 207.45 198.1H210.9C210.6 201.5 210.45 205.9 210.45 211.3C210.45 213.6 210.5 216.95 210.6 221.35C210.7 225.75 211 230.3 211.5 235C206.4 234.8 200.65 234.7 194.25 234.7C187.85 234.6 182.15 234.55 177.15 234.55C174.65 234.55 171.45 234.55 167.55 234.55C163.65 234.55 159.45 234.6 154.95 234.7C150.45 234.7 145.9 234.75 141.3 234.85C136.7 234.85 132.35 234.9 128.25 235V232C131.45 231.8 133.85 231.4 135.45 230.8C137.05 230.2 138.1 229 138.6 227.2C139.2 225.4 139.5 222.7 139.5 219.1V144.7C139.5 141 139.2 138.3 138.6 136.6C138.1 134.8 137 133.6 135.3 133C133.7 132.3 131.35 131.9 128.25 131.8V128.8C130.75 128.9 134.1 129 138.3 129.1C142.6 129.2 147.15 129.25 151.95 129.25C156.35 129.25 160.65 129.2 164.85 129.1C169.15 129 172.7 128.9 175.5 128.8Z" fill="#F3EAD9"/>
<path d="M194 157C195 170 197 172 210 173C197 174 195 176 194 189C193 176 191 174 178 173C191 172 193 170 194 157Z" fill="#C9A46A"/>
</svg>
