<svg width="40" height="40" viewBox="0 0 40 40" fill="none" xmlns="http://www.w3.org/2000/svg">
<path d="M6.79066 4.98966C6.88771 3.27284 7.29781 2.52628 8.47386 1.92676C9.73928 1.28149 11.7351 1.58178 14.0836 2.77101C15.0951 3.28348 15.1981 3.29391 16.9708 3.06663C19.3272 2.76441 22.3607 2.76548 24.5355 3.06939C26.1802 3.29923 26.2882 3.28774 27.3022 2.77421C30.6357 1.08613 33.2675 1.19658 34.2205 3.06449C34.6962 3.99686 34.7845 6.41618 34.4157 8.41158C34.2112 9.51781 34.2328 9.65593 34.7255 10.3819C38.1917 15.4897 35.6942 23.7693 29.7547 26.8592C29.3002 27.0957 28.9172 27.242 28.605 27.3612C27.6465 27.7272 27.3555 27.8383 27.7078 29.523C27.8775 30.3333 28.0818 32.348 28.1622 34.0003C28.3073 36.987 28.3052 37.0078 27.7813 37.6172C27.0683 38.446 26.0407 38.46 25.3443 37.6503C24.8902 37.1223 24.8458 36.873 24.8458 34.8358C24.8458 31.8253 24.5158 29.8243 23.7362 28.1097C22.809 26.0692 23.4963 25.3083 25.6167 24.8523C28.5638 24.2183 30.8657 22.3995 32.1487 19.691C33.3685 17.1163 33.5523 13.5583 31.347 11.3945C30.7198 10.6492 30.6762 9.97409 31.124 7.93848C31.2913 7.17766 31.4317 6.19613 31.4358 5.75708C31.4422 5.06371 31.379 4.95901 30.9532 4.95901C30.6837 4.95901 29.654 5.35103 28.6653 5.83008L27.0873 6.59491C26.9438 6.66443 26.7833 6.69116 26.625 6.67299C22.6125 6.21243 18.7998 6.20531 14.7677 6.67479C14.6088 6.69329 14.4475 6.66656 14.3036 6.59669L12.7264 5.83136C11.7376 5.35144 10.708 4.95901 10.4386 4.95901C9.81568 4.95901 9.80631 5.41891 10.3741 8.15129C10.721 9.82004 10.9544 10.1919 9.95168 11.5262C8.44874 13.5263 8.07333 16.0099 8.87928 18.6193C9.89506 21.9077 12.3825 24.1292 15.8795 24.8703C17.9877 25.3172 18.5387 25.9002 17.7337 28.3175C17.1 30.2198 16.6993 30.7102 15.7784 30.7102C14.5394 30.7102 13.7633 29.6368 14.1904 28.5137C14.3785 28.0187 14.3226 27.9658 13.1618 27.5425C9.61861 26.2507 6.90856 23.3552 5.66953 19.5372C4.71184 16.5864 5.13323 12.7456 6.66958 10.4242C7.19268 9.63379 7.20078 9.56676 6.95666 8.05361C6.81854 7.19703 6.74384 5.81838 6.79066 4.98966Z" fill="#66B851"/>
<path d="M5.55339 26.5757C5.04281 25.8098 4.00802 25.6028 3.24214 26.1135C2.47627 26.624 2.26931 27.6588 2.77989 28.4247C3.15684 28.9902 3.60779 29.4547 3.99074 29.8375C4.06134 29.9082 4.12994 29.9763 4.19692 30.0428C4.51771 30.3615 4.80094 30.6428 5.08541 30.9768C5.71459 31.7153 6.34227 32.71 6.69901 34.4937C6.85791 35.2882 7.42899 35.7162 7.74542 35.9032C8.08859 36.1058 8.46354 36.2253 8.77209 36.3032C9.40327 36.4623 10.1695 36.545 10.8967 36.5932C11.6949 36.6462 12.5599 36.6633 13.3333 36.668C13.3339 37.5878 14.0799 38.3335 15 38.3335C15.9205 38.3335 16.6666 37.5873 16.6666 36.6668V35.0002C16.6666 34.0797 15.9205 33.3335 15 33.3335C14.8429 33.3335 14.6729 33.334 14.4928 33.3347C13.5147 33.3377 12.2398 33.3415 11.117 33.2672C10.5755 33.2313 10.1304 33.1805 9.80402 33.1183C9.30139 31.1452 8.48937 29.8323 7.62289 28.8152C7.23986 28.3657 6.84322 27.9723 6.52061 27.6523C6.46021 27.5925 6.40241 27.5352 6.34776 27.4805C5.97551 27.1083 5.73201 26.8437 5.55339 26.5757Z" fill="#66B851"/>
</svg>
