<svg width="40" height="40" viewBox="0 0 40 40" fill="none" xmlns="http://www.w3.org/2000/svg">
<g clip-path="url(#clip0_10_105)">
<path d="M10.8333 13.3333C12.214 13.3333 13.3333 12.214 13.3333 10.8333C13.3333 9.45261 12.214 8.33333 10.8333 8.33333C9.45261 8.33333 8.33333 9.45261 8.33333 10.8333C8.33333 12.214 9.45261 13.3333 10.8333 13.3333Z" fill="#66B851"/>
<path d="M8.33333 16.6667C8.33333 15.7462 9.07953 15 9.99999 15H11.6667C12.5871 15 13.3333 15.7462 13.3333 16.6667V30C13.3333 30.9205 12.5871 31.6667 11.6667 31.6667H9.99999C9.07953 31.6667 8.33333 30.9205 8.33333 30V16.6667Z" fill="#66B851"/>
<path d="M18.3333 31.6667H20C20.9205 31.6667 21.6667 30.9205 21.6667 30V22.5C21.6667 20 26.6667 18.3333 26.6667 21.6667V30.0007C26.6667 30.9212 27.4128 31.6667 28.3333 31.6667H30C30.9205 31.6667 31.6667 30.9205 31.6667 30V20C31.6667 16.6667 29.1667 15 25.8333 15C22.5 15 21.6667 17.5 21.6667 17.5V16.6667C21.6667 15.7462 20.9205 15 20 15H18.3333C17.4128 15 16.6667 15.7462 16.6667 16.6667V30C16.6667 30.9205 17.4128 31.6667 18.3333 31.6667Z" fill="#66B851"/>
<path fill-rule="evenodd" clip-rule="evenodd" d="M33.3333 1.66667C36.0948 1.66667 38.3333 3.90525 38.3333 6.66667V33.3333C38.3333 36.0948 36.0948 38.3333 33.3333 38.3333H6.66666C3.90524 38.3333 1.66666 36.0948 1.66666 33.3333V6.66667C1.66666 3.90525 3.90524 1.66667 6.66666 1.66667H33.3333ZM33.3333 5C34.2538 5 35 5.7462 35 6.66667V33.3333C35 34.2538 34.2538 35 33.3333 35H6.66666C5.74619 35 4.99999 34.2538 4.99999 33.3333V6.66667C4.99999 5.7462 5.74619 5 6.66666 5H33.3333Z" fill="#66B851"/>
</g>
<defs>
<clipPath id="clip0_10_105">
<rect width="40" height="40" fill="white"/>
</clipPath>
</defs>
</svg>
