<svg width="140" height="140" viewBox="0 0 140 140" fill="none" xmlns="http://www.w3.org/2000/svg">
<rect width="140" height="140" rx="10" fill="#3A2065"/>
<path d="M32.626 72V68.92C34.166 68.8267 35.2627 68.5 35.916 67.94C36.616 67.38 37.0593 66.54 37.246 65.42C37.4327 64.3 37.526 62.8767 37.526 61.15V32.03C37.526 31.0033 37.5493 30.0233 37.596 29.09C37.6427 28.11 37.6893 27.27 37.736 26.57C36.9427 26.6167 36.0793 26.6633 35.146 26.71C34.2127 26.7567 33.3727 26.8033 32.626 26.85V23H49.846V26.08C48.3527 26.1267 47.256 26.4533 46.556 27.06C45.856 27.62 45.4127 28.46 45.226 29.58C45.0393 30.6533 44.946 32.0767 44.946 33.85V62.83C44.946 64.09 44.9227 65.21 44.876 66.19C44.876 67.1233 44.8293 67.8933 44.736 68.5L56.566 68.36C59.4594 68.3133 61.676 67.38 63.216 65.56C64.756 63.6933 65.526 60.7533 65.526 56.74H68.676L68.256 72H32.626ZM73.71 72V68.92C75.25 68.8267 76.3467 68.5 77 67.94C77.7 67.38 78.1433 66.54 78.33 65.42C78.5167 64.3 78.61 62.8767 78.61 61.15V32.03C78.61 31.0033 78.6333 30.0233 78.68 29.09C78.7267 28.11 78.7733 27.27 78.82 26.57C78.0267 26.6167 77.1633 26.6633 76.23 26.71C75.2967 26.7567 74.4567 26.8033 73.71 26.85V23H90.93V26.08C89.4367 26.1267 88.34 26.4533 87.64 27.06C86.94 27.62 86.4967 28.46 86.31 29.58C86.1233 30.6533 86.03 32.0767 86.03 33.85V62.83C86.03 64.09 86.0067 65.21 85.96 66.19C85.96 67.1233 85.9133 67.8933 85.82 68.5L97.65 68.36C100.543 68.3133 102.76 67.38 104.3 65.56C105.84 63.6933 106.61 60.7533 106.61 56.74H109.76L109.34 72H73.71ZM40.388 112.64C39.2146 112.64 38.068 112.493 36.948 112.2C35.828 111.933 34.8146 111.493 33.908 110.88C33.0013 110.24 32.2813 109.44 31.748 108.48C31.2146 107.493 30.948 106.307 30.948 104.92C30.948 103.187 31.5213 101.653 32.668 100.32C33.8146 98.96 35.3213 97.8933 37.188 97.12C36.4146 96.16 35.8013 95.28 35.348 94.48C34.8946 93.6533 34.5613 92.8533 34.348 92.08C34.1613 91.3067 34.068 90.5333 34.068 89.76C34.0946 87.7867 34.8013 86.2267 36.188 85.08C37.5746 83.9333 39.3613 83.36 41.548 83.36C42.9346 83.36 44.1346 83.6267 45.148 84.16C46.1613 84.6667 46.948 85.36 47.508 86.24C48.068 87.12 48.348 88.1067 48.348 89.2C48.348 90.2133 48.108 91.1867 47.628 92.12C47.1746 93.0533 46.4813 93.9333 45.548 94.76C44.6146 95.56 43.4413 96.3333 42.028 97.08C42.5613 97.6133 43.2146 98.2933 43.988 99.12C44.788 99.9467 45.6413 100.813 46.548 101.72C47.4546 102.6 48.3213 103.427 49.148 104.2C49.2546 103.773 49.3346 103.36 49.388 102.96C49.4413 102.56 49.468 102.187 49.468 101.84C49.468 101.173 49.3746 100.573 49.188 100.04C49.028 99.48 48.748 99.04 48.348 98.72C47.9746 98.3733 47.4413 98.1867 46.748 98.16V96.4H53.628V98.52L50.708 98.36C51.028 98.7067 51.2546 99.1333 51.388 99.64C51.548 100.147 51.6413 100.733 51.668 101.4C51.6946 101.987 51.6413 102.667 51.508 103.44C51.3746 104.187 51.1613 104.96 50.868 105.76C51.108 105.973 51.348 106.2 51.588 106.44C51.8546 106.653 52.1346 106.88 52.428 107.12C53.5746 108.133 54.5746 108.907 55.428 109.44C56.2813 109.973 56.948 110.24 57.428 110.24V112H53.508C53.268 112 52.748 111.773 51.948 111.32C51.148 110.84 50.1346 110.08 48.908 109.04C47.9746 110.053 46.8013 110.907 45.388 111.6C44.0013 112.293 42.3346 112.64 40.388 112.64ZM41.108 110.36C42.5746 110.387 43.8146 110.147 44.828 109.64C45.8413 109.133 46.6813 108.48 47.348 107.68C47.108 107.467 46.868 107.253 46.628 107.04C46.4146 106.8 46.1746 106.573 45.908 106.36C44.2013 104.707 42.7346 103.267 41.508 102.04C40.2813 100.813 39.2013 99.68 38.268 98.64C37.548 99.12 36.9746 99.7067 36.548 100.4C36.148 101.067 35.8546 101.747 35.668 102.44C35.508 103.107 35.428 103.693 35.428 104.2C35.428 105.587 35.6813 106.733 36.188 107.64C36.7213 108.52 37.4146 109.187 38.268 109.64C39.148 110.093 40.0946 110.333 41.108 110.36ZM40.868 95.76C42.2013 94.8267 43.188 93.7733 43.828 92.6C44.468 91.4 44.788 90.2667 44.788 89.2C44.788 88.0267 44.4813 87.0667 43.868 86.32C43.2813 85.5467 42.4413 85.16 41.348 85.16C40.388 85.16 39.5746 85.5333 38.908 86.28C38.2413 87.0267 37.908 88.0933 37.908 89.48C37.908 90.4933 38.188 91.56 38.748 92.68C39.308 93.7733 40.0146 94.8 40.868 95.76ZM59.2489 112V110.24C60.1289 110.213 60.7556 110.04 61.1289 109.72C61.5289 109.373 61.7822 108.867 61.8889 108.2C61.9956 107.533 62.0489 106.693 62.0489 105.68V89.36C62.0489 88.64 62.0622 88 62.0889 87.44C62.1156 86.8533 62.1422 86.3867 62.1689 86.04C61.7156 86.0667 61.2222 86.0933 60.6889 86.12C60.1556 86.1467 59.6756 86.1733 59.2489 86.2V84C60.8489 83.9733 62.4489 83.96 64.0489 83.96C65.6489 83.9333 67.2889 83.92 68.9689 83.92C72.1156 83.92 74.5822 84.4933 76.3689 85.64C78.1556 86.76 79.0089 88.52 78.9289 90.92C78.9022 91.7467 78.6489 92.5733 78.1689 93.4C77.7156 94.2 77.0222 94.92 76.0889 95.56C75.1556 96.1733 73.9956 96.6267 72.6089 96.92V97C75.4622 97.1333 77.5956 97.88 79.0089 99.24C80.4222 100.573 81.1289 102.2 81.1289 104.12C81.1289 105.773 80.7022 107.2 79.8489 108.4C79.0222 109.573 77.8889 110.467 76.4489 111.08C75.0356 111.693 73.4089 112 71.5689 112H59.2489ZM66.1689 110C66.6222 110 67.1156 110.013 67.6489 110.04C68.1822 110.04 68.6889 110.04 69.1689 110.04C69.6756 110.04 70.0489 110.04 70.2889 110.04C72.2089 110.013 73.7156 109.493 74.8089 108.48C75.9022 107.467 76.4489 106.053 76.4489 104.24C76.4489 102.747 76.1422 101.587 75.5289 100.76C74.9422 99.9067 74.1689 99.3067 73.2089 98.96C72.2489 98.6133 71.2222 98.44 70.1289 98.44C69.3822 98.44 68.7022 98.4533 68.0889 98.48C67.5022 98.48 66.9022 98.4933 66.2889 98.52V106.72C66.2889 107.44 66.2756 108.08 66.2489 108.64C66.2489 109.2 66.2222 109.653 66.1689 110ZM66.2889 96.56L68.9289 96.48C70.3156 96.4533 71.4089 96.16 72.2089 95.6C73.0356 95.04 73.6222 94.32 73.9689 93.44C74.3156 92.56 74.4756 91.64 74.4489 90.68C74.4489 89.3467 74.1689 88.3333 73.6089 87.64C73.0489 86.9467 72.3556 86.4667 71.5289 86.2C70.7022 85.9333 69.8889 85.8 69.0889 85.8C68.3422 85.8 67.7689 85.9067 67.3689 86.12C66.9689 86.3333 66.6889 86.7067 66.5289 87.24C66.3689 87.7467 66.2889 88.5067 66.2889 89.52V96.56ZM106.28 92.92C105.986 90.52 105.16 88.68 103.8 87.4C102.44 86.0933 100.666 85.4267 98.4795 85.4C97.0929 85.4 95.8129 85.7067 94.6395 86.32C93.4662 86.9333 92.4529 87.8 91.5995 88.92C90.7462 90.0133 90.0795 91.32 89.5995 92.84C89.1462 94.3333 88.9195 95.9733 88.9195 97.76C88.9195 100.187 89.3462 102.347 90.1995 104.24C91.0529 106.107 92.2262 107.56 93.7195 108.6C95.2395 109.64 96.9595 110.16 98.8795 110.16C100.586 110.16 102.266 109.76 103.92 108.96C105.6 108.133 106.986 106.973 108.08 105.48L109.4 106.6C108.2 108.253 106.92 109.52 105.56 110.4C104.2 111.28 102.84 111.867 101.48 112.16C100.146 112.48 98.9329 112.64 97.8395 112.64C95.8395 112.64 93.9995 112.28 92.3195 111.56C90.6395 110.84 89.1862 109.84 87.9595 108.56C86.7595 107.253 85.8262 105.747 85.1595 104.04C84.5195 102.307 84.1995 100.44 84.1995 98.44C84.1995 96.5733 84.4929 94.7467 85.0795 92.96C85.6662 91.1733 86.5329 89.56 87.6795 88.12C88.8262 86.6533 90.2662 85.4933 91.9995 84.64C93.7595 83.7867 95.7995 83.36 98.1195 83.36C99.4795 83.36 100.8 83.5467 102.08 83.92C103.386 84.2933 104.64 84.8667 105.84 85.64L105.64 83.64H108.12V92.92H106.28Z" fill="white"/>
</svg>
